<svg xmlns="http://www.w3.org/2000/svg" viewBox="0 0 27 33.72"><path d="M24.1,33.72H2.9a2.87,2.87,0,0,1-2.1-.9A2.92,2.92,0,0,1,0,30.68L1,10.39a2.89,2.89,0,0,1,2.9-2.76H23.14A2.89,2.89,0,0,1,26,10.39l1,20.29a2.92,2.92,0,0,1-.8,2.14A2.87,2.87,0,0,1,24.1,33.72Z" style="fill:#526930"/><path d="M19.15,11.91a1.08,1.08,0,0,0-1,.87,4.68,4.68,0,0,1-9.2,0,1.08,1.08,0,0,0-1.05-.87h0a1.06,1.06,0,0,0-1,1.26,6.81,6.81,0,0,0,13.38,0,1.06,1.06,0,0,0-1-1.26Z" style="fill:#fff"/><path d="M18.81,9.75H8.19a1.5,1.5,0,0,1-1.5-1.5V6.81a6.81,6.81,0,0,1,13.62,0V8.25A1.5,1.5,0,0,1,18.81,9.75Zm-10-2.12h9.38V6.81a4.69,4.69,0,0,0-9.38,0Z" style="fill:#526930"/></svg>