<svg xmlns="http://www.w3.org/2000/svg" viewBox="0 0 24.59 30.58"><path d="M21.75,30.34H2.83A2.6,2.6,0,0,1,.24,27.63L1.1,9.52A2.58,2.58,0,0,1,3.69,7.05H20.9a2.59,2.59,0,0,1,2.59,2.47l.85,18.11a2.58,2.58,0,0,1-2.59,2.71ZM3.69,9a.69.69,0,0,0-.7.66L2.14,27.72a.69.69,0,0,0,.19.51.68.68,0,0,0,.5.22H21.75a.7.7,0,0,0,.51-.22.69.69,0,0,0,.19-.51L21.59,9.61A.69.69,0,0,0,20.9,9Z" style="fill:#526930;stroke:#526930;stroke-miterlimit:10;stroke-width:0.48184775833081445px"/><path d="M17.33,10.88a1,1,0,0,0-.93.77,4.18,4.18,0,0,1-8.22,0,.94.94,0,0,0-.93-.77h0A1,1,0,0,0,6.32,12a6.08,6.08,0,0,0,12,0,1,1,0,0,0-.94-1.12Z" style="fill:#526930;stroke:#526930;stroke-miterlimit:10;stroke-width:0.48184775833081445px"/><path d="M17,9H7.55A1.34,1.34,0,0,1,6.21,7.61V6.32a6.08,6.08,0,0,1,12.16,0V7.61A1.34,1.34,0,0,1,17,9ZM8.11,7.05h8.37V6.32a4.19,4.19,0,0,0-8.37,0Z" style="fill:#526930;stroke:#526930;stroke-miterlimit:10;stroke-width:0.48184775833081445px"/></svg>