<svg xmlns="http://www.w3.org/2000/svg" viewBox="0 0 34.97 23.31"><path d="M27.68,23.31H7.28A7.28,7.28,0,0,1,0,16V7.28A7.28,7.28,0,0,1,7.28,0h20.4A7.3,7.3,0,0,1,35,7.28V16A7.3,7.3,0,0,1,27.68,23.31ZM7.28,2.91A4.37,4.37,0,0,0,2.91,7.28V16A4.37,4.37,0,0,0,7.28,20.4h20.4A4.37,4.37,0,0,0,32.05,16V7.28a4.37,4.37,0,0,0-4.37-4.37Zm10.2,14.57a5.83,5.83,0,1,1,5.83-5.82A5.82,5.82,0,0,1,17.48,17.48Zm0-8.74a2.92,2.92,0,1,0,2.92,2.92A2.91,2.91,0,0,0,17.48,8.74ZM7.28,5.83A1.46,1.46,0,1,0,8.74,7.28,1.45,1.45,0,0,0,7.28,5.83ZM26.22,7.28a1.46,1.46,0,1,0,1.46-1.45A1.46,1.46,0,0,0,26.22,7.28ZM7.28,14.57A1.46,1.46,0,1,0,8.74,16,1.45,1.45,0,0,0,7.28,14.57ZM26.22,16a1.46,1.46,0,1,0,1.46-1.46A1.46,1.46,0,0,0,26.22,16Z" style="fill:#526a30"/></svg>