<svg xmlns="http://www.w3.org/2000/svg" viewBox="0 0 31.79 31.79"><path d="M31.4,21.62a1.33,1.33,0,0,0-1.87,0l-7.45,7.46-3.56-3.51a1.33,1.33,0,1,0-1.9,1.85L20.25,31a2.49,2.49,0,0,0,1.78.79h0a2.47,2.47,0,0,0,1.76-.73L31.4,23.5a1.33,1.33,0,0,0,0-1.88Z" style="fill:#526a30"/><path d="M14.69,29.09A13.25,13.25,0,1,1,29.14,15.9c0,.4,0,.8-.05,1.2a1.32,1.32,0,0,0,1.19,1.44h0a1.3,1.3,0,0,0,1.43-1.17v0q.06-.72.06-1.44A15.9,15.9,0,1,0,14.45,31.73h.12A1.34,1.34,0,0,0,16,30.46a1.33,1.33,0,0,0-1.27-1.38Z" style="fill:#526a30"/><path d="M14.57,9.27v6.08L11,18.93a1.33,1.33,0,1,0,1.84,1.91l0,0,4-4a1.31,1.31,0,0,0,.39-.93V9.27a1.33,1.33,0,0,0-2.65,0Z" style="fill:#526a30"/></svg>