<svg xmlns="http://www.w3.org/2000/svg" viewBox="0 0 31.79 31.8"><path d="M11.92,31.8H1.32a1.33,1.33,0,0,1,0-2.65h10.6a1.33,1.33,0,1,1,0,2.65Z" style="fill:#526a30"/><path d="M9.27,26.5H1.32a1.33,1.33,0,0,1,0-2.65h8a1.33,1.33,0,1,1,0,2.65Z" style="fill:#526a30"/><path d="M6.62,21.2H1.32a1.32,1.32,0,0,1,0-2.64h5.3a1.32,1.32,0,1,1,0,2.64Z" style="fill:#526a30"/><path d="M17.22,31.74a1.33,1.33,0,0,1-.12-2.65A13.24,13.24,0,1,0,2.7,14.7a1.31,1.31,0,0,1-1.43,1.2A1.34,1.34,0,0,1,.06,14.46h0A15.9,15.9,0,1,1,17.34,31.74Z" style="fill:#526a30"/><path d="M15.9,8a1.32,1.32,0,0,0-1.33,1.32v6.63a1.31,1.31,0,0,0,.39.93l4,4a1.33,1.33,0,0,0,1.88-1.88l-3.59-3.58V9.28A1.32,1.32,0,0,0,15.9,8Z" style="fill:#526a30"/></svg>