<svg xmlns="http://www.w3.org/2000/svg" viewBox="0 0 57.25 57.44"><path d="M33.64.26a2.4,2.4,0,0,0-2.8,1.92,2.18,2.18,0,0,0,0,.44V9.54A19.09,19.09,0,0,0,9.35,26a18.42,18.42,0,0,0,0,5H2.43A2.4,2.4,0,0,0,0,33.39a2.12,2.12,0,0,0,0,.44A28.83,28.83,0,1,0,33.64.26ZM28.4,33.39A4.78,4.78,0,0,1,24.26,31H18.79a2.4,2.4,0,0,1,0-4.8h5.47A4.84,4.84,0,0,1,26,24.45V16.58a2.4,2.4,0,1,1,4.8,0v7.87a4.79,4.79,0,0,1-2.4,8.94ZM23.53,0a2.4,2.4,0,1,1-2.41,2.4A2.41,2.41,0,0,1,23.53,0ZM13.68,4.22a2.4,2.4,0,1,1-2.41,2.4,2.4,2.4,0,0,1,2.41-2.4ZM6.25,11.39a2.4,2.4,0,1,1-2.41,2.4A2.41,2.41,0,0,1,6.25,11.39ZM2.4,21.4A2.41,2.41,0,1,1,0,23.8a2.4,2.4,0,0,1,2.4-2.4Z" style="fill:#526a30"/></svg>