<svg xmlns="http://www.w3.org/2000/svg" viewBox="0 0 101.63 100.21"><path d="M50.81,42.34a12.7,12.7,0,1,1,12.71-12.7A12.7,12.7,0,0,1,50.81,42.34ZM38,64.57a13.48,13.48,0,0,1,25.68,0,4.23,4.23,0,1,0,8.2-2.12c-5.55-20.94-36.54-20.94-42.07,0a4.23,4.23,0,1,0,8.15,2.3,1.16,1.16,0,0,0,0-.18Zm12.88,35.64a8.5,8.5,0,0,1-5.66-2.16L29.32,84.69H16.94A16.93,16.93,0,0,1,0,67.75V16.94A16.93,16.93,0,0,1,16.94,0H84.69a16.94,16.94,0,0,1,16.94,16.94V67.75A16.94,16.94,0,0,1,84.69,84.69H72.61L56.32,98.15a8.18,8.18,0,0,1-5.47,2.06ZM16.94,8.47a8.47,8.47,0,0,0-8.47,8.47V67.75a8.47,8.47,0,0,0,8.47,8.47H30.86a4.2,4.2,0,0,1,2.73,1L50.72,91.65,68.39,77.19a4.22,4.22,0,0,1,2.7-1h13.6a8.47,8.47,0,0,0,8.47-8.47V16.94a8.47,8.47,0,0,0-8.47-8.47Z" style="fill:#526a30"/></svg>