<svg xmlns="http://www.w3.org/2000/svg" viewBox="0 0 66.81 79.74"><path d="M33.41,19.94A13.29,13.29,0,1,0,46.7,33.23,13.29,13.29,0,0,0,33.41,19.94Zm0,19.93a6.65,6.65,0,1,1,6.64-6.64A6.64,6.64,0,0,1,33.41,39.87Z" style="fill:#2b2b2b"/><path d="M33.41,79.74a17.53,17.53,0,0,1-14.33-7.31C6.42,55,0,41.84,0,33.4a33.41,33.41,0,0,1,66.81,0c0,8.44-6.42,21.57-19.08,39A17.53,17.53,0,0,1,33.41,79.74Zm0-72.49A26.19,26.19,0,0,0,7.25,33.41c0,6.68,6.29,19,17.7,34.77a10.46,10.46,0,0,0,14.6,2.32,10.59,10.59,0,0,0,2.31-2.32C53.28,52.44,59.57,40.09,59.57,33.41A26.2,26.2,0,0,0,33.41,7.25Z" style="fill:#2b2b2b"/></svg>