<svg xmlns="http://www.w3.org/2000/svg" viewBox="0 0 66 57.78"><path d="M46.75,13.75c0,6.26-8.38,17.41-12,21.9a2.06,2.06,0,0,1-3.4,0c-3.67-4.49-12-15.64-12-21.9a13.75,13.75,0,0,1,27.5,0ZM33,17.42a4.59,4.59,0,1,0-4.58-4.59A4.58,4.58,0,0,0,33,17.42ZM48.77,20.6c0-.14.11-.27.17-.42l13.29-5.32A2.75,2.75,0,0,1,66,17.42v31A2.76,2.76,0,0,1,64.27,51l-16.6,6.64V23C48.07,22.17,48.43,21.39,48.77,20.6Zm-31.54,0c.34.79.7,1.57,1.1,2.36V51.77L3.77,57.6A2.79,2.79,0,0,1,0,55.05V24a2.65,2.65,0,0,1,1.73-2.56l14-5.61a21.94,21.94,0,0,0,1.46,4.75ZM37.56,37.94A96.79,96.79,0,0,0,44,29.22V57.78L22,51.49V29.22a96.79,96.79,0,0,0,6.44,8.72,5.7,5.7,0,0,0,9.12,0Z" style="fill:#526a30"/></svg>