<svg xmlns="http://www.w3.org/2000/svg" viewBox="0 0 29.74 29.73"><path d="M28.65,11.21l-9.4-9.4a6.21,6.21,0,0,0-8.76,0l-9.4,9.4A3.73,3.73,0,0,0,0,13.84V26a3.72,3.72,0,0,0,3.72,3.72H26A3.72,3.72,0,0,0,29.74,26V13.84A3.68,3.68,0,0,0,28.65,11.21Zm-10.06,16H11.15V22.37a3.72,3.72,0,1,1,7.44,0ZM27.27,26A1.25,1.25,0,0,1,26,27.25h-5V22.37a6.2,6.2,0,0,0-12.39,0v4.88h-5A1.24,1.24,0,0,1,2.48,26V13.84A1.23,1.23,0,0,1,2.84,13l9.4-9.4a3.72,3.72,0,0,1,5.26,0L26.9,13a1.28,1.28,0,0,1,.37.87Z" style="fill:#526a30"/></svg>