<svg xmlns="http://www.w3.org/2000/svg" viewBox="0 0 75.75 75.7"><path d="M73,28.55,49,4.61a15.81,15.81,0,0,0-22.32,0L2.77,28.55A9.43,9.43,0,0,0,0,35.25v31A9.47,9.47,0,0,0,9.47,75.7H66.28a9.46,9.46,0,0,0,9.46-9.47v-31A9.43,9.43,0,0,0,73,28.55ZM47.34,69.39H28.4V57a9.47,9.47,0,0,1,18.94,0Zm22.09-3.16a3.16,3.16,0,0,1-3.15,3.16H53.65V57a15.78,15.78,0,0,0-31.56,0V69.39H9.47a3.17,3.17,0,0,1-3.16-3.16v-31A3.2,3.2,0,0,1,7.24,33L31.18,9.09a9.48,9.48,0,0,1,13.39,0L68.51,33a3.14,3.14,0,0,1,.92,2.22Z" style="fill:#2b2b2b"/></svg>