<svg xmlns="http://www.w3.org/2000/svg" viewBox="0 0 72.82 72.78"><path d="M72,67.66a3,3,0,0,1-4.42,4.16L50.93,54.11c-3.14.1-17.61.53-13.08-6.31a3,3,0,0,1,3-.77,24.5,24.5,0,0,0,10.49.88,3.82,3.82,0,0,1,3.31,1.21ZM45.51,42.44A15.17,15.17,0,0,0,56.24,38L71.93,22.31A3,3,0,0,0,67.64,18L52,33.71a9.12,9.12,0,0,1-10.34,1.74L62.82,14.24a3,3,0,1,0-4.21-4.36l-.08.07L37.32,31.16a9.09,9.09,0,0,1,1.75-10.33L54.76,5.14A3,3,0,0,0,50.47.85L34.78,16.54a15.2,15.2,0,0,0-1.92,19.09l-32,32a3,3,0,0,0,4.29,4.29l32-32A15.17,15.17,0,0,0,45.51,42.44Zm-29-3.14c2.52,2.37,4.84-.78,6.53-2.46a6.06,6.06,0,0,0,1.63-5.46c-1.87-5.23,2.71-11.33-1.08-15.53L10.1,1.7A6,6,0,0,0,0,5.89C.72,19.88,5.87,27,16.54,39.3Z" style="fill:#526930"/></svg>