<svg xmlns="http://www.w3.org/2000/svg" viewBox="0 0 70.14 76.51"><path d="M54.2,0H22.32A15.94,15.94,0,0,0,7.73,9.56H3.19a3.19,3.19,0,0,0,0,6.38H6.38v6.38H3.19a3.19,3.19,0,1,0,0,6.37H6.38v6.38H3.19a3.19,3.19,0,1,0,0,6.37H6.38v6.38H3.19a3.19,3.19,0,0,0,0,6.38H6.38v6.37H3.19a3.19,3.19,0,0,0,0,6.38H7.73a15.93,15.93,0,0,0,14.59,9.56H54.2A16,16,0,0,0,70.14,60.57V15.94A16,16,0,0,0,54.2,0Zm9.56,60.57a9.56,9.56,0,0,1-9.56,9.57H22.32a9.56,9.56,0,0,1-9.57-9.57V15.94a9.56,9.56,0,0,1,9.57-9.56H54.2a9.56,9.56,0,0,1,9.56,9.56Z" style="fill:#526a30"/><rect x="23.53" y="27.09" width="30.42" height="4.75" rx="2.38" style="fill:#526a30"/><rect x="23.53" y="37.07" width="30.42" height="4.75" rx="2.38" style="fill:#526a30"/><rect x="23.53" y="47.05" width="30.42" height="4.75" rx="2.38" style="fill:#526a30"/></svg>