<svg xmlns="http://www.w3.org/2000/svg" viewBox="0 0 879.12 1640.56"><path d="M814.56,1324a65.09,65.09,0,0,1,64.56-65.09V25a25.07,25.07,0,0,0-25-25H25A25.07,25.07,0,0,0,0,25V1258.87l.54,0a65.11,65.11,0,1,1,0,130.21L0,1389v226.52a25.07,25.07,0,0,0,25,25H854.12a25.07,25.07,0,0,0,25-25V1389A65.08,65.08,0,0,1,814.56,1324Z" style="fill:#f7f7f7"/><path d="M118.46,1326.68a1.07,1.07,0,0,1-1.21-1.17v-3.07a1.08,1.08,0,0,1,1.21-1.21H135a1.07,1.07,0,0,1,1.16,1.21v3.07a1.06,1.06,0,0,1-1.16,1.17Z" style="fill:#e8e8e8"/><path d="M157.63,1326.68a1.07,1.07,0,0,1-1.21-1.17v-3.07a1.08,1.08,0,0,1,1.21-1.21h16.52a1.07,1.07,0,0,1,1.17,1.21v3.07a1.06,1.06,0,0,1-1.17,1.17Z" style="fill:#e8e8e8"/><path d="M196.81,1326.68a1.07,1.07,0,0,1-1.21-1.17v-3.07a1.08,1.08,0,0,1,1.21-1.21h16.52a1.07,1.07,0,0,1,1.16,1.21v3.07a1.06,1.06,0,0,1-1.16,1.17Z" style="fill:#e8e8e8"/><path d="M236,1326.68a1.07,1.07,0,0,1-1.21-1.17v-3.07a1.08,1.08,0,0,1,1.21-1.21h16.53a1.07,1.07,0,0,1,1.16,1.21v3.07a1.06,1.06,0,0,1-1.16,1.17Z" style="fill:#e8e8e8"/><path d="M275.16,1326.68a1.07,1.07,0,0,1-1.21-1.17v-3.07a1.08,1.08,0,0,1,1.21-1.21h16.52a1.06,1.06,0,0,1,1.16,1.21v3.07a1.05,1.05,0,0,1-1.16,1.17Z" style="fill:#e8e8e8"/><path d="M314.34,1326.68a1.07,1.07,0,0,1-1.21-1.17v-3.07a1.08,1.08,0,0,1,1.21-1.21h16.52a1.07,1.07,0,0,1,1.16,1.21v3.07a1.06,1.06,0,0,1-1.16,1.17Z" style="fill:#e8e8e8"/><path d="M353.51,1326.68a1.07,1.07,0,0,1-1.21-1.17v-3.07a1.08,1.08,0,0,1,1.21-1.21H370a1.07,1.07,0,0,1,1.17,1.21v3.07a1.06,1.06,0,0,1-1.17,1.17Z" style="fill:#e8e8e8"/><path d="M392.69,1326.68a1.07,1.07,0,0,1-1.21-1.17v-3.07a1.08,1.08,0,0,1,1.21-1.21h16.52a1.07,1.07,0,0,1,1.16,1.21v3.07a1.06,1.06,0,0,1-1.16,1.17Z" style="fill:#e8e8e8"/><path d="M431.86,1326.68a1.07,1.07,0,0,1-1.21-1.17v-3.07a1.08,1.08,0,0,1,1.21-1.21h16.52a1.07,1.07,0,0,1,1.17,1.21v3.07a1.06,1.06,0,0,1-1.17,1.17Z" style="fill:#e8e8e8"/><path d="M471,1326.68a1.07,1.07,0,0,1-1.21-1.17v-3.07a1.08,1.08,0,0,1,1.21-1.21h16.52a1.06,1.06,0,0,1,1.16,1.21v3.07a1.05,1.05,0,0,1-1.16,1.17Z" style="fill:#e8e8e8"/><path d="M510.22,1326.68a1.07,1.07,0,0,1-1.21-1.17v-3.07a1.08,1.08,0,0,1,1.21-1.21h16.52a1.07,1.07,0,0,1,1.16,1.21v3.07a1.06,1.06,0,0,1-1.16,1.17Z" style="fill:#e8e8e8"/><path d="M549.39,1326.68a1.07,1.07,0,0,1-1.21-1.17v-3.07a1.08,1.08,0,0,1,1.21-1.21h16.52a1.07,1.07,0,0,1,1.17,1.21v3.07a1.06,1.06,0,0,1-1.17,1.17Z" style="fill:#e8e8e8"/><path d="M588.57,1326.68a1.07,1.07,0,0,1-1.21-1.17v-3.07a1.08,1.08,0,0,1,1.21-1.21h16.52a1.07,1.07,0,0,1,1.16,1.21v3.07a1.06,1.06,0,0,1-1.16,1.17Z" style="fill:#e8e8e8"/><path d="M627.74,1326.68a1.07,1.07,0,0,1-1.21-1.17v-3.07a1.08,1.08,0,0,1,1.21-1.21h16.52a1.07,1.07,0,0,1,1.17,1.21v3.07a1.06,1.06,0,0,1-1.17,1.17Z" style="fill:#e8e8e8"/><path d="M666.92,1326.68a1.07,1.07,0,0,1-1.21-1.17v-3.07a1.08,1.08,0,0,1,1.21-1.21h16.52a1.07,1.07,0,0,1,1.16,1.21v3.07a1.06,1.06,0,0,1-1.16,1.17Z" style="fill:#e8e8e8"/><path d="M706.09,1326.68a1.07,1.07,0,0,1-1.21-1.17v-3.07a1.08,1.08,0,0,1,1.21-1.21h16.53a1.07,1.07,0,0,1,1.16,1.21v3.07a1.06,1.06,0,0,1-1.16,1.17Z" style="fill:#e8e8e8"/><path d="M745.27,1326.68a1.07,1.07,0,0,1-1.21-1.17v-3.07a1.08,1.08,0,0,1,1.21-1.21h16.52a1.07,1.07,0,0,1,1.17,1.21v3.07a1.06,1.06,0,0,1-1.17,1.17Z" style="fill:#e8e8e8"/></svg>