<svg xmlns="http://www.w3.org/2000/svg" viewBox="0 0 72.02 72.03"><path d="M2.66,49.4l15.26-6.55a4.37,4.37,0,0,1,5.13,1.27l6.2,7.57A49.22,49.22,0,0,0,51.69,29.25l-7.57-6.2a4.4,4.4,0,0,1-1.26-5.13L49.4,2.66a4.42,4.42,0,0,1,5-2.55L68.62,3.38A4.38,4.38,0,0,1,72,7.67,64.42,64.42,0,0,1,7.67,72a4.38,4.38,0,0,1-4.29-3.41L.11,54.44A4.43,4.43,0,0,1,2.66,49.4Z" transform="translate(0)" style="fill:#0d6df9"/><path d="M25.89,22.32,9.25,5.68h10a2.57,2.57,0,0,0,2.56-2.56h0A2.56,2.56,0,0,0,19.21.56H3.07A2.56,2.56,0,0,0,1.67,1h0a2.55,2.55,0,0,0-.4.32h0a0,0,0,0,0,0,0,2.17,2.17,0,0,0-.31.37.3.3,0,0,1,0,.08A2.56,2.56,0,0,0,.5,3.12s0,0,0,.06V19.26a2.57,2.57,0,0,0,2.56,2.56h0a2.57,2.57,0,0,0,2.56-2.56V9.3L22.27,25.94a2.56,2.56,0,0,0,3.62-3.62Z" transform="translate(0)" style="fill:#0d6df9"/></svg>