<svg xmlns="http://www.w3.org/2000/svg" viewBox="0 0 55.63 66.75"><path d="M55.63,27.81A35.14,35.14,0,0,1,41.72,55v9a2.78,2.78,0,0,1-5.56,0V5.56A5.3,5.3,0,0,1,39.3.6a6.12,6.12,0,0,1,6.56,1.28A37.51,37.51,0,0,1,55.63,27.81ZM25,0a2.79,2.79,0,0,0-2.78,2.78V19.47a8.33,8.33,0,0,1-5.56,7.83V2.78a2.78,2.78,0,0,0-5.56,0V27.3a8.34,8.34,0,0,1-5.57-7.83V2.78A2.78,2.78,0,0,0,0,2.78V19.47A13.93,13.93,0,0,0,11.13,33.1V64a2.78,2.78,0,0,0,5.56,0V33.1A13.92,13.92,0,0,0,27.81,19.47V2.78A2.78,2.78,0,0,0,25,0Z" style="fill:#526930"/></svg>