<svg xmlns="http://www.w3.org/2000/svg" viewBox="0 0 16.39 19.67"><path d="M16.39,3.28h-4.1V1.64A1.63,1.63,0,0,0,10.65,0H5.74A1.63,1.63,0,0,0,4.1,1.64V3.28H0V4.92H1.64V17.21A2.46,2.46,0,0,0,4.1,19.67h8.19a2.46,2.46,0,0,0,2.46-2.46V4.92h1.64ZM5.74,1.64h4.91V3.28H5.74Zm7.37,15.57a.82.82,0,0,1-.82.82H4.1a.82.82,0,0,1-.82-.82V4.92h9.83Z" style="fill:#9e9e9e"/><rect x="5.74" y="8.2" width="1.64" height="6.56" style="fill:#9e9e9e"/><rect x="9.02" y="8.2" width="1.64" height="6.56" style="fill:#9e9e9e"/></svg>